<?xml version="1.0" ?><svg viewBox="0 0 22.618 22.618" xmlns="http://www.w3.org/2000/svg"><g data-name="Layer 2" id="Layer_2"><g data-name="Layer 1" id="Layer_1-2"><path d="M22.618,2.627V17.706a.345.345,0,0,1-.585.242L19.52,15.435a.343.343,0,0,1-.1-.243V3.77a.571.571,0,0,0-.571-.571H13.2a.343.343,0,0,1,0-.686h5.651A1.259,1.259,0,0,1,20.105,3.77V15.05l1.827,1.828V2.627A1.944,1.944,0,0,0,19.991.685H13.656a.343.343,0,1,1,0-.685h6.335A2.631,2.631,0,0,1,22.618,2.627ZM4.67,5.154a.345.345,0,0,0,.585-.242V3.2h3.43a.343.343,0,0,0,0-.686H4.912a.344.344,0,0,0-.343.343V4.085L1.17.685H10A.343.343,0,0,0,10,0H.343A.343.343,0,0,0,.1.585ZM9.384,19.419H3.77a.571.571,0,0,1-.571-.571V7.426a.339.339,0,0,0-.1-.242L.585,4.67A.343.343,0,0,0,0,4.912V19.991a2.63,2.63,0,0,0,2.628,2.627H8.9a.343.343,0,1,0,0-.685H2.628A1.945,1.945,0,0,1,.686,19.991V5.74L2.513,7.567V18.848A1.259,1.259,0,0,0,3.77,20.105H9.384A.343.343,0,0,0,9.384,19.419Zm8.564-1.956a.345.345,0,0,0-.585.243v1.713H13.9a.343.343,0,0,0,0,.686h3.81a.343.343,0,0,0,.342-.343V18.533l3.4,3.4H12.561a.343.343,0,0,0,0,.685h9.714a.345.345,0,0,0,.242-.585Zm.06-8.161L11.036,22.436a.343.343,0,0,1-.639-.225l1.774-9.333-7.21,1.03a.346.346,0,0,1-.353-.5L11.524.184a.344.344,0,0,1,.641.221L10.443,9.834,17.657,8.8a.342.342,0,0,1,.351.5Zm-.921.274-7.018,1a.345.345,0,0,1-.386-.4l1.4-7.676L5.526,13.135l7.022-1a.346.346,0,0,1,.385.4l-1.44,7.577Z" data-name="renewable energy" id="renewable_energy"/></g></g></svg>